<?xml version="1.0" encoding="utf-8"?>
<!-- Generator: Adobe Illustrator 19.0.0, SVG Export Plug-In . SVG Version: 6.00 Build 0)  -->
<svg version="1.1" id="Layer_1" xmlns="http://www.w3.org/2000/svg" xmlns:xlink="http://www.w3.org/1999/xlink" x="0px" y="0px"
	 viewBox="0 0 800 800" style="enable-background:new 0 0 800 800;" xml:space="preserve">
<style type="text/css">
	.st0{fill:#332127;}
	.st1{fill:#FF4E69;}
	.st2{fill:#526179;}
	.st3{fill:#4CAEFF;}
	.st4{fill:#F2EFC4;}
	.st5{fill:#EEEEEE;}
</style>
<g id="XMLID_9_">
	<g id="XMLID_164_">
		<g id="XMLID_165_">
			<path id="XMLID_114_" class="st0" d="M398.5,400.9c0.2,0.2,0.5,0.3,0.8,0.3c0.3,0,0.6-0.1,0.8-0.3l65.6-65.6
				c0.4-0.4,0.4-1.1,0-1.5c-0.4-0.4-1.1-0.4-1.5,0l-65.6,65.6C398,399.7,398,400.4,398.5,400.9z"/>
			<path id="XMLID_113_" class="st0" d="M224.4,498.4c0.2,0.2,0.5,0.3,0.8,0.3s0.6-0.1,0.8-0.3l44-44c0.4-0.4,0.4-1.1,0-1.5
				c-0.4-0.4-1.1-0.4-1.5,0l-44,44C224,497.3,224,498,224.4,498.4z"/>
			<path id="XMLID_112_" class="st0" d="M423.8,543.6L388.4,579c-0.4,0.4-0.4,1.1,0,1.5c0.2,0.2,0.5,0.3,0.8,0.3
				c0.3,0,0.6-0.1,0.8-0.3l35.4-35.4c0.4-0.4,0.4-1.1,0-1.5C424.9,543.2,424.3,543.2,423.8,543.6z"/>
			<path id="XMLID_230_" class="st0" d="M665.6,426.5H560.8c-3.6,0-6.5,2.9-6.5,6.5v14c0,3.6,2.9,6.5,6.5,6.5h104.8
				c3.6,0,6.5-2.9,6.5-6.5v-14C672.1,429.5,669.2,426.5,665.6,426.5z M667.7,447.1c0,1.2-1,2.2-2.2,2.2H560.8c-1.2,0-2.2-1-2.2-2.2
				v-14c0-1.2,1-2.2,2.2-2.2h104.8c1.2,0,2.2,1,2.2,2.2V447.1z"/>
			<path id="XMLID_109_" class="st0" d="M664.5,380.2h38.2c0.6,0,1.1-0.5,1.1-1.1c0-0.6-0.5-1.1-1.1-1.1h-38.2
				c-0.6,0-1.1,0.5-1.1,1.1C663.4,379.7,663.9,380.2,664.5,380.2z"/>
			<path id="XMLID_108_" class="st0" d="M628.5,380.2h26.8c0.6,0,1.1-0.5,1.1-1.1c0-0.6-0.5-1.1-1.1-1.1h-26.8
				c-0.6,0-1.1,0.5-1.1,1.1C627.4,379.7,627.9,380.2,628.5,380.2z"/>
			<path id="XMLID_107_" class="st0" d="M715.3,466.9c-0.6,0-1.1,0.5-1.1,1.1v36.7c0,0.6,0.5,1.1,1.1,1.1c0.6,0,1.1-0.5,1.1-1.1
				v-36.7C716.4,467.3,715.9,466.9,715.3,466.9z"/>
			<path id="XMLID_106_" class="st0" d="M715.3,511.3c-0.6,0-1.1,0.5-1.1,1.1v18.4c0,0.6,0.5,1.1,1.1,1.1c0.6,0,1.1-0.5,1.1-1.1
				v-18.4C716.4,511.8,715.9,511.3,715.3,511.3z"/>
			<path id="XMLID_105_" class="st0" d="M77.5,500.7c-0.6,0-1.1,0.5-1.1,1.1v36.7c0,0.6,0.5,1.1,1.1,1.1c0.6,0,1.1-0.5,1.1-1.1
				v-36.7C78.6,501.2,78.1,500.7,77.5,500.7z"/>
			<path id="XMLID_104_" class="st0" d="M77.5,545.1c-0.6,0-1.1,0.5-1.1,1.1v18.4c0,0.6,0.5,1.1,1.1,1.1c0.6,0,1.1-0.5,1.1-1.1
				v-18.4C78.6,545.6,78.1,545.1,77.5,545.1z"/>
			<path id="XMLID_103_" class="st0" d="M511.8,422.2c-0.6,0-1.1,0.5-1.1,1.1v94.6c0,0.6,0.5,1.1,1.1,1.1c0.6,0,1.1-0.5,1.1-1.1
				v-94.6C512.9,422.7,512.4,422.2,511.8,422.2z"/>
			<path id="XMLID_102_" class="st0" d="M79,454.8h15.6c0.6,0,1.1-0.5,1.1-1.1c0-0.6-0.5-1.1-1.1-1.1H79c-0.6,0-1.1,0.5-1.1,1.1
				C77.9,454.3,78.4,454.8,79,454.8z"/>
			<path id="XMLID_101_" class="st0" d="M101.1,454.8h7.8c0.6,0,1.1-0.5,1.1-1.1c0-0.6-0.5-1.1-1.1-1.1h-7.8c-0.6,0-1.1,0.5-1.1,1.1
				C100.1,454.3,100.5,454.8,101.1,454.8z"/>
			<path id="XMLID_100_" class="st1" d="M662.1,295.5h38.6l-10,7.7c-0.5,0.4-0.8,1-0.9,1.7c0,0.7,0.3,1.3,0.8,1.7l10.6,8.9
				l-39.1,0.1V295.5z"/>
			<path id="XMLID_99_" class="st2" d="M499.8,358.4h226.7c1.3,0,2.3,1,2.3,2.3v37.3H497.6v-37.3
				C497.6,359.4,498.6,358.4,499.8,358.4z"/>
			<path id="XMLID_98_" class="st3" d="M432.8,347.1c-0.4-0.4-1.1-0.4-1.5,0l-74.1,74.1h-32.9c-1.2,0-2.3-1-2.3-2.3v-36
				c0-0.8,0.4-1.5,1-1.9l170.2-111.9v91.5v60.5h-133l72.6-72.6C433.2,348.2,433.2,347.5,432.8,347.1z"/>
			<path id="XMLID_97_" class="st3" d="M493.2,511.1H324.3c-1.2,0-2.3-0.8-2.3-1.8v-68.9c0-1,1-1.8,2.3-1.8h168.9V511.1z"/>
			<path id="XMLID_96_" class="st3" d="M153.3,329.9C153.3,329.9,153.3,329.9,153.3,329.9L301.1,383c0.9,0.3,1.5,1.2,1.5,2.1v33.8
				c0,1.3-1,2.3-2.3,2.3H153.3V329.9z"/>
			<path id="XMLID_95_" class="st3" d="M300.4,438.7c1.2,0,2.3,0.8,2.3,1.8v68.9c0,1-1,1.8-2.3,1.8H200.2l47.7-47.7
				c0.4-0.4,0.4-1.1,0-1.5c-0.4-0.4-1.1-0.4-1.5,0l-49.2,49.2h-43.5v-39.7v-32.7H300.4z"/>
			<path id="XMLID_94_" class="st2" d="M59.9,436c0-1.3,1-2.3,2.3-2.3H147c0.8,0,1.5,0.5,1.9,1.1v37.6c-0.4,0.7-1.1,1.1-1.9,1.1
				H62.1c-1.2,0-2.3-1-2.3-2.3V436z"/>
			<path id="XMLID_93_" class="st4" d="M62.1,590.2c-1.2,0-2.3-1-2.3-2.3V477.6c0.7,0.3,1.5,0.4,2.3,0.4H147c0.7,0,1.3-0.1,1.9-0.3
				v110.2c0,0.3,0.1,0.7,0.1,1c-0.4,0.8-1.1,1.3-2,1.3H62.1z"/>
			<path id="XMLID_92_" class="st3" d="M153.5,588.9c0-0.3,0.1-0.6,0.1-1v-58.3h146.7c1.2,0,2.3,1,2.3,2.3v56c0,0.8,0.2,1.6,0.4,2.3
				H155.5C154.6,590.2,153.9,589.6,153.5,588.9z"/>
			<path id="XMLID_91_" class="st5" d="M309.2,590.2c-1.2,0-2.3-1-2.3-2.3v-56c0-3.7-3-6.6-6.6-6.6H153.6v-9.8h146.7
				c3.7,0,6.6-2.8,6.6-6.1v-68.9c0-3.4-3-6.1-6.6-6.1h-147c0-0.1-0.1-0.2-0.1-0.3v-8.5h147.1c3.7,0,6.6-3,6.6-6.6v-33.8
				c0-2.8-1.8-5.3-4.4-6.2l-147.8-53.1c-0.9-0.3-1.5-1.2-1.5-2.1v-8.8c0-0.8,0.4-1.4,1-1.9c0.6-0.4,1.4-0.5,2.1-0.3l153,57.2
				c2,0.8,4.3,0.5,6.1-0.8l174.2-120.9c0.7-0.5,1.6-0.5,2.3-0.1c0.8,0.4,1.2,1.1,1.2,2v12.5c0,0.8-0.4,1.5-1,1.9L320.6,377.3
				c-1.9,1.2-3,3.3-3,5.5v36c0,3.7,3,6.6,6.6,6.6h168.9v8.8H324.3c-3.7,0-6.6,2.8-6.6,6.1v68.9c0,3.4,3,6.1,6.6,6.1h168.9v9.8H324.3
				c-3.7,0-6.6,3-6.6,6.6v56c0,1.2-1,2.3-2.3,2.3H309.2z"/>
			<path id="XMLID_90_" class="st3" d="M369.8,590.2l37.8-37.8c0.4-0.4,0.4-1.1,0-1.5c-0.4-0.4-1.1-0.4-1.5,0l-39.4,39.4h-45.2
				c0.3-0.7,0.4-1.5,0.4-2.3v-56c0-1.2,1-2.3,2.3-2.3h168.9v58.3v2.3H369.8z"/>
			<path id="XMLID_89_" class="st3" d="M584.9,528.5h-26.3v-48.8c0-1,0.9-1.9,1.9-1.9H583c1,0,1.9,0.9,1.9,1.9V528.5z"/>
			<polygon id="XMLID_88_" class="st3" points="558.6,590.2 558.6,533.2 558.6,532.9 584.9,532.9 584.9,533.2 584.9,590.2 			"/>
			<path id="XMLID_87_" class="st3" d="M626.3,528.5H600v-48.8c0-1,0.9-1.9,1.9-1.9h22.5c1,0,1.9,0.9,1.9,1.9V528.5z"/>
			<polygon id="XMLID_86_" class="st3" points="600,590.2 600,533.2 600,532.9 626.3,532.9 626.3,533.2 626.3,590.2 			"/>
			<path id="XMLID_85_" class="st3" d="M667.7,528.5h-26.3v-48.8c0-1,0.9-1.9,1.9-1.9h22.5c1,0,1.9,0.9,1.9,1.9V528.5z"/>
			<polygon id="XMLID_84_" class="st3" points="641.4,590.2 641.4,533.2 641.4,532.9 667.7,532.9 667.7,533.2 667.7,590.2 			"/>
			<path id="XMLID_83_" class="st4" d="M672.1,590.2v-57v-2.4v-51c0-3.5-2.8-6.3-6.3-6.3h-22.5c-3.5,0-6.3,2.8-6.3,6.3v51v2.4v57
				h-6.4v-57v-2.4v-51c0-3.5-2.8-6.3-6.3-6.3h-22.5c-3.5,0-6.3,2.8-6.3,6.3v51v2.4v57h-6.4v-57v-2.4v-51c0-3.5-2.8-6.3-6.3-6.3
				h-22.5c-3.5,0-6.3,2.8-6.3,6.3v51v2.4v57h-54.4c-1.3,0-2.3-1-2.3-2.3V402.3h231.2v185.6c0,1.2-1,2.3-2.3,2.3H672.1z"/>
			<path id="XMLID_82_" class="st3" d="M667.7,454.8c0,1.2-1,2.2-2.2,2.2H560.8c-1.2,0-2.2-1-2.2-2.2v-14c0-1.2,1-2.2,2.2-2.2h104.8
				c1.2,0,2.2,1,2.2,2.2V454.8z"/>
		</g>
	</g>
	<g id="XMLID_11_">
		<path id="XMLID_81_" class="st0" d="M402.9,396.1c0.2,0.2,0.5,0.3,0.8,0.3c0.3,0,0.6-0.1,0.8-0.3l65.6-65.6c0.4-0.4,0.4-1.1,0-1.5
			c-0.4-0.4-1.1-0.4-1.5,0l-65.6,65.6C402.5,395,402.5,395.7,402.9,396.1z"/>
		<path id="XMLID_80_" class="st0" d="M228.9,493.7c0.2,0.2,0.5,0.3,0.8,0.3s0.6-0.1,0.8-0.3l44-44c0.4-0.4,0.4-1.1,0-1.5
			c-0.4-0.4-1.1-0.4-1.5,0l-44,44C228.4,492.6,228.4,493.3,228.9,493.7z"/>
		<path id="XMLID_79_" class="st0" d="M428.3,538.9l-35.4,35.4c-0.4,0.4-0.4,1.1,0,1.5c0.2,0.2,0.5,0.3,0.8,0.3
			c0.3,0,0.6-0.1,0.8-0.3l35.4-35.4c0.4-0.4,0.4-1.1,0-1.5C429.4,538.5,428.7,538.5,428.3,538.9z"/>
		<path id="XMLID_158_" class="st0" d="M670,429.6H565.2c-3.6,0-6.5,2.9-6.5,6.5v14c0,3.6,2.9,6.5,6.5,6.5H670
			c3.6,0,6.5-2.9,6.5-6.5v-14C676.6,432.5,673.6,429.6,670,429.6z M672.2,450.1c0,1.2-1,2.2-2.2,2.2H565.2c-1.2,0-2.2-1-2.2-2.2v-14
			c0-1.2,1-2.2,2.2-2.2H670c1.2,0,2.2,1,2.2,2.2V450.1z"/>
		<path id="XMLID_76_" class="st0" d="M668.9,375.5h38.2c0.6,0,1.1-0.5,1.1-1.1c0-0.6-0.5-1.1-1.1-1.1h-38.2c-0.6,0-1.1,0.5-1.1,1.1
			C667.8,375,668.3,375.5,668.9,375.5z"/>
		<path id="XMLID_75_" class="st0" d="M632.9,375.5h26.8c0.6,0,1.1-0.5,1.1-1.1c0-0.6-0.5-1.1-1.1-1.1h-26.8c-0.6,0-1.1,0.5-1.1,1.1
			C631.9,375,632.3,375.5,632.9,375.5z"/>
		<path id="XMLID_74_" class="st0" d="M719.8,462.1c-0.6,0-1.1,0.5-1.1,1.1v36.7c0,0.6,0.5,1.1,1.1,1.1c0.6,0,1.1-0.5,1.1-1.1v-36.7
			C720.9,462.6,720.4,462.1,719.8,462.1z"/>
		<path id="XMLID_73_" class="st0" d="M719.8,506.6c-0.6,0-1.1,0.5-1.1,1.1V526c0,0.6,0.5,1.1,1.1,1.1c0.6,0,1.1-0.5,1.1-1.1v-18.4
			C720.9,507,720.4,506.6,719.8,506.6z"/>
		<path id="XMLID_72_" class="st0" d="M82,496c-0.6,0-1.1,0.5-1.1,1.1v36.7c0,0.6,0.5,1.1,1.1,1.1s1.1-0.5,1.1-1.1v-36.7
			C83.1,496.4,82.6,496,82,496z"/>
		<path id="XMLID_71_" class="st0" d="M82,540.4c-0.6,0-1.1,0.5-1.1,1.1v18.4c0,0.6,0.5,1.1,1.1,1.1s1.1-0.5,1.1-1.1v-18.4
			C83.1,540.9,82.6,540.4,82,540.4z"/>
		<path id="XMLID_70_" class="st0" d="M516.3,417.5c-0.6,0-1.1,0.5-1.1,1.1v94.6c0,0.6,0.5,1.1,1.1,1.1c0.6,0,1.1-0.5,1.1-1.1v-94.6
			C517.4,418,516.9,417.5,516.3,417.5z"/>
		<path id="XMLID_69_" class="st0" d="M83.4,450h15.6c0.6,0,1.1-0.5,1.1-1.1c0-0.6-0.5-1.1-1.1-1.1H83.4c-0.6,0-1.1,0.5-1.1,1.1
			C82.3,449.6,82.8,450,83.4,450z"/>
		<path id="XMLID_68_" class="st0" d="M105.6,450h7.8c0.6,0,1.1-0.5,1.1-1.1c0-0.6-0.5-1.1-1.1-1.1h-7.8c-0.6,0-1.1,0.5-1.1,1.1
			C104.5,449.6,105,450,105.6,450z"/>
		<path id="XMLID_134_" class="st0" d="M780.9,585.4h-43.8c0.3-0.7,0.4-1.5,0.4-2.3V355.9c0-3.7-3-6.6-6.6-6.6h-64.4v-34.2l45-0.1
			c0.9,0,1.7-0.6,2-1.4c0.3-0.9,0.1-1.8-0.6-2.4l-13.1-11l13-9.9c0.7-0.6,1-1.5,0.7-2.4c-0.3-0.9-1.1-1.5-2.1-1.5h-47.2
			c-1.2,0-2.2,1-2.2,2.2v60.7H504.3c-0.8,0-1.6,0.2-2.3,0.4v-89.4c0-0.3-0.1-0.6-0.2-0.9c0.1-0.5,0.2-1,0.2-1.5v-12.5
			c0-2.5-1.4-4.7-3.6-5.9c-2.2-1.1-4.8-1-6.9,0.4L317.4,360.9c-0.6,0.4-1.4,0.5-2.1,0.3l-153-57.2c-2-0.8-4.3-0.5-6.1,0.8
			c-1.8,1.2-2.8,3.3-2.8,5.4v8.8c0,0.2,0,0.3,0,0.5c0,0.1,0,0.1,0,0.2V425c-0.6-0.2-1.2-0.3-1.9-0.3H66.6c-3.7,0-6.6,3-6.6,6.6v35.4
			v116.5c0,0.8,0.2,1.6,0.4,2.3H21.3c-1.2,0-2.2,1-2.2,2.2s1,2.2,2.2,2.2h45.3h84.9h8.5h153.7h6.1h180h4.4h56.6h30.7h10.8h30.7h10.8
			h30.7H731h50c1.2,0,2.2-1,2.2-2.2S782.1,585.4,780.9,585.4z M666.6,290.7h38.6l-10,7.7c-0.5,0.4-0.8,1-0.9,1.7
			c0,0.7,0.3,1.3,0.8,1.7l10.6,8.9l-39.1,0.1V290.7z M504.3,353.7H731c1.3,0,2.3,1,2.3,2.3v37.3H502v-37.3
			C502,354.7,503,353.7,504.3,353.7z M437.2,342.3c-0.4-0.4-1.1-0.4-1.5,0l-74.1,74.1h-32.9c-1.2,0-2.3-1-2.3-2.3v-36
			c0-0.8,0.4-1.5,1-1.9l170.2-111.9v91.5v60.5h-133l72.6-72.6C437.7,343.4,437.7,342.8,437.2,342.3z M497.6,506.3H328.7
			c-1.2,0-2.3-0.8-2.3-1.8v-68.9c0-1,1-1.8,2.3-1.8h168.9V506.3z M157.7,325.1C157.7,325.1,157.7,325.2,157.7,325.1l147.9,53.1
			c0.9,0.3,1.5,1.2,1.5,2.1v33.8c0,1.2-1,2.3-2.3,2.3H157.7V325.1z M304.8,433.9c1.2,0,2.3,0.8,2.3,1.8v68.9c0,1-1,1.8-2.3,1.8
			H204.7l47.7-47.7c0.4-0.4,0.4-1.1,0-1.5s-1.1-0.4-1.5,0l-49.2,49.2h-43.5v-39.7v-32.7H304.8z M64.3,431.3c0-1.2,1-2.3,2.3-2.3
			h84.9c0.8,0,1.5,0.5,1.9,1.1v37.6c-0.4,0.7-1.1,1.1-1.9,1.1H66.6c-1.2,0-2.3-1-2.3-2.3V431.3z M66.6,585.4c-1.2,0-2.3-1-2.3-2.3
			V472.8c0.7,0.3,1.5,0.4,2.3,0.4h84.9c0.7,0,1.3-0.1,1.9-0.3v110.2c0,0.3,0.1,0.7,0.1,1c-0.4,0.8-1.1,1.3-2,1.3H66.6z M158,584.1
			c0-0.3,0.1-0.6,0.1-1v-58.3h146.7c1.2,0,2.3,1,2.3,2.3v56c0,0.8,0.2,1.6,0.4,2.3H160C159.1,585.4,158.3,584.9,158,584.1z
			 M313.7,585.4c-1.2,0-2.3-1-2.3-2.3v-56c0-3.7-3-6.6-6.6-6.6H158.1v-9.8h146.7c3.7,0,6.6-2.8,6.6-6.1v-68.9c0-3.4-3-6.1-6.6-6.1
			h-147c0-0.1-0.1-0.2-0.1-0.3v-8.5h147.1c3.7,0,6.6-3,6.6-6.6v-33.8c0-2.8-1.8-5.3-4.4-6.2l-147.8-53.1c-0.9-0.3-1.5-1.2-1.5-2.1
			v-8.8c0-0.8,0.4-1.4,1-1.9c0.6-0.4,1.4-0.5,2.1-0.3l153,57.2c2,0.8,4.3,0.5,6.1-0.8l174.2-120.9c0.7-0.5,1.6-0.5,2.3-0.1
			c0.8,0.4,1.2,1.1,1.2,2v12.5c0,0.8-0.4,1.5-1,1.9L325.1,372.6c-1.9,1.2-3,3.3-3,5.5v36c0,3.7,3,6.6,6.6,6.6h168.9v8.8H328.7
			c-3.7,0-6.6,2.8-6.6,6.1v68.9c0,3.4,3,6.1,6.6,6.1h168.9v9.8H328.7c-3.7,0-6.6,3-6.6,6.6v56c0,1.2-1,2.3-2.3,2.3H313.7z
			 M374.3,585.4l37.8-37.8c0.4-0.4,0.4-1.1,0-1.5c-0.4-0.4-1.1-0.4-1.5,0l-39.4,39.4H326c0.3-0.7,0.4-1.5,0.4-2.3v-56
			c0-1.3,1-2.3,2.3-2.3h168.9v58.3v2.3H374.3z M589.3,523.8h-26.3V475c0-1,0.9-1.9,1.9-1.9h22.5c1,0,1.9,0.9,1.9,1.9V523.8z
			 M563.1,585.4v-57v-0.3h26.3v0.3v57H563.1z M630.8,523.8h-26.3V475c0-1,0.9-1.9,1.9-1.9h22.5c1,0,1.9,0.9,1.9,1.9V523.8z
			 M604.5,585.4v-57v-0.3h26.3v0.3v57H604.5z M672.2,523.8h-26.3V475c0-1,0.9-1.9,1.9-1.9h22.5c1,0,1.9,0.9,1.9,1.9V523.8z
			 M645.9,585.4v-57v-0.3h26.3v0.3v57H645.9z M676.6,585.4v-57V526v-51c0-3.5-2.8-6.3-6.3-6.3h-22.5c-3.5,0-6.3,2.8-6.3,6.3v51v2.4
			v57h-6.4v-57V526v-51c0-3.5-2.8-6.3-6.3-6.3h-22.5c-3.5,0-6.3,2.8-6.3,6.3v51v2.4v57h-6.4v-57V526v-51c0-3.5-2.8-6.3-6.3-6.3H565
			c-3.5,0-6.3,2.8-6.3,6.3v51v2.4v57h-54.4c-1.2,0-2.3-1-2.3-2.3V397.5h231.2v185.6c0,1.2-1,2.3-2.3,2.3H676.6z"/>
		<path id="XMLID_43_" class="st0" d="M575.2,419.1c-1.2,0-2.5-0.6-3.9-1.9l-1.7,2.1c1.7,1.5,3.5,2.3,5.6,2.3c1.4,0,2.6-0.4,3.5-1.1
			c0.9-0.7,1.3-1.7,1.3-2.8c0-1.2-0.3-2.1-1-2.7c-0.7-0.6-1.6-1.1-2.9-1.4c-1.2-0.3-2-0.6-2.4-0.8c-0.3-0.2-0.5-0.5-0.5-0.9
			c0-0.4,0.1-0.7,0.4-0.9c0.3-0.2,0.7-0.3,1.2-0.3c1.2,0,2.4,0.4,3.5,1.3l1.5-2.1c-0.6-0.5-1.4-1-2.3-1.3c-0.9-0.3-1.7-0.4-2.6-0.4
			c-1.3,0-2.4,0.3-3.3,1c-0.9,0.7-1.3,1.6-1.3,2.9c0,1.2,0.4,2.1,1.1,2.7c0.7,0.6,1.8,1,3.3,1.4c1,0.2,1.6,0.5,1.9,0.7
			c0.3,0.2,0.5,0.5,0.5,0.9c0,0.4-0.2,0.7-0.5,0.9C576.2,419,575.7,419.1,575.2,419.1z"/>
		<path id="XMLID_7_" class="st0" d="M592.3,421.7c2,0,3.8-0.8,5.2-2.5l-1.9-1.9c-0.9,1.1-2.1,1.7-3.5,1.7c-1,0-1.9-0.4-2.7-1.1
			c-0.7-0.7-1.1-1.7-1.1-2.9c0-1.2,0.4-2.2,1.2-2.9c0.8-0.7,1.7-1.1,2.8-1.1c1.4,0,2.5,0.6,3.4,1.7l1.8-2.1
			c-1.4-1.6-3.2-2.4-5.4-2.4c-1.9,0-3.5,0.6-4.9,1.9c-1.3,1.3-2,2.9-2,4.8c0,1.9,0.7,3.5,2,4.8C588.6,421,590.3,421.7,592.3,421.7z"
			/>
		<polygon id="XMLID_6_" class="st0" points="606.5,416.4 611.7,416.4 611.7,421.5 614.6,421.5 614.6,408.5 611.7,408.5 
			611.7,413.9 606.5,413.9 606.5,408.5 603.6,408.5 603.6,421.5 606.5,421.5 		"/>
		<path id="XMLID_13_" class="st0" d="M627.7,421.7c1.9,0,3.6-0.6,4.9-1.9c1.3-1.3,2-2.9,2-4.8c0-1.9-0.7-3.5-2-4.8
			c-1.3-1.3-2.9-1.9-4.9-1.9c-1.9,0-3.6,0.6-4.9,1.9c-1.3,1.3-2,2.9-2,4.8c0,1.9,0.7,3.5,2,4.8C624.1,421,625.7,421.7,627.7,421.7z
			 M624.9,411.9c0.7-0.8,1.7-1.2,2.8-1.2c1.1,0,2,0.4,2.8,1.2c0.7,0.8,1.1,1.8,1.1,3c0,1.2-0.4,2.2-1.1,3c-0.7,0.8-1.7,1.2-2.8,1.2
			c-1.1,0-2-0.4-2.8-1.2c-0.7-0.8-1.1-1.8-1.1-3C623.8,413.8,624.2,412.8,624.9,411.9z"/>
		<path id="XMLID_10_" class="st0" d="M646.8,421.7c1.9,0,3.6-0.6,4.9-1.9c1.3-1.3,2-2.9,2-4.8c0-1.9-0.7-3.5-2-4.8
			c-1.3-1.3-2.9-1.9-4.9-1.9c-1.9,0-3.6,0.6-4.9,1.9c-1.3,1.3-2,2.9-2,4.8c0,1.9,0.7,3.5,2,4.8C643.3,421,644.9,421.7,646.8,421.7z
			 M644.1,411.9c0.7-0.8,1.7-1.2,2.8-1.2c1.1,0,2,0.4,2.8,1.2c0.7,0.8,1.1,1.8,1.1,3c0,1.2-0.4,2.2-1.1,3c-0.7,0.8-1.7,1.2-2.8,1.2
			c-1.1,0-2-0.4-2.8-1.2c-0.7-0.8-1.1-1.8-1.1-3C643,413.8,643.3,412.8,644.1,411.9z"/>
		<polygon id="XMLID_1_" class="st0" points="662.8,408.5 659.9,408.5 659.9,421.5 668.4,421.5 668.4,418.9 662.8,418.9 		"/>
	</g>
</g>
</svg>
