<?xml version="1.0" encoding="utf-8"?>
<!-- Generator: Adobe Illustrator 19.0.0, SVG Export Plug-In . SVG Version: 6.00 Build 0)  -->
<svg version="1.1" id="Layer_1" xmlns="http://www.w3.org/2000/svg" xmlns:xlink="http://www.w3.org/1999/xlink" x="0px" y="0px"
	 viewBox="0 0 800 180" style="enable-background:new 0 0 800 180;" xml:space="preserve">
<style type="text/css">
	.st0{fill:#0F6255;}
	.st1{fill:#EFE833;}
	.st2{fill:#FFFFFF;}
</style>
<g id="XMLID_2_">
	<path id="XMLID_227_" class="st0" d="M529,21.1H272c0,36.7,0,73.4,0,110c0,1.2,0.3,1.4,1.4,1.4c84.7,0,169.4,0,254.1,0
		c1.1,0,1.5-0.2,1.5-1.4c0-36.1,0-72.2,0-108.2C528.9,22.3,529,21.7,529,21.1z M519,121.2c0,1.2-0.3,1.4-1.4,1.4
		c-39,0-78.1,0-117.1,0c-39,0-78,0-117,0c-1.2,0-1.5-0.3-1.5-1.5c0-29.5,0-59,0-88.5c0-1.2,0.3-1.4,1.4-1.4c78,0,156.1,0,234.1,0
		c1.2,0,1.5,0.2,1.5,1.5C518.9,62.2,518.9,91.7,519,121.2z"/>
	<path id="XMLID_31_" class="st1" d="M254,61.3c0,0.9-0.3,1.2-1.1,1.1c-0.3,0-0.6,0-0.9,0H0.5v-11h251.8c1.6,0,1.6,0,1.6,1.6
		C254,55.7,253.9,58.5,254,61.3z"/>
	<path id="XMLID_30_" class="st1" d="M799.5,51.4v11H547.7c-1.6,0-1.6,0-1.6-1.6c0-2.8,0.1-5.5,0-8.3c0-1,0.3-1.4,1.3-1.2
		c0.3,0,0.6,0,1,0H799.5z"/>
	<path id="XMLID_29_" class="st0" d="M313.9,147.1c-3.2,7.5-6.4,14.9-9.6,22.3h-4.1c0.3-1.6,1.1-3.1,1.8-4.5c0.8-1.7,0.8-3.1,0-4.8
		c-1.7-3.9-3.2-8-4.9-11.9c-0.4-0.9-0.2-1.1,0.8-1.1c3.4,0,3.4,0,4.5,3.2c0.9,2.6,1.8,5.1,2.7,7.8c1.4-3.4,2.7-6.7,4-10
		c0.3-0.8,0.7-1.1,1.5-1C311.7,147.2,312.7,147.1,313.9,147.1z"/>
	<path id="XMLID_28_" class="st1" d="M254,84c0,0.7-0.2,1.1-0.9,0.9c-0.2,0-0.4,0-0.6,0C181,85,109.5,85,38,85
		c-1.3,0-1.6-0.3-1.6-1.5c0.1-2.7,0.1-5.4,0-8.2c0-1.1,0.2-1.4,1.4-1.4c10.8,0,21.5,0,32.3,0h75.1c35.8,0,71.5,0,107.3,0
		c1.2,0,1.5,0.3,1.5,1.5C253.9,78.3,253.9,81.1,254,84z"/>
	<path id="XMLID_27_" class="st1" d="M763.5,83.7c0,1-0.2,1.3-1.2,1.3c-11.2,0-22.3,0-33.5,0h-74c-35.8,0-71.5,0-107.3,0
		c-1.2,0-1.5-0.3-1.5-1.5c0.1-2.9,0.1-5.8,0-8.6c0-0.7,0.1-1.1,0.9-0.9c0.2,0,0.4,0,0.6,0c71.5,0,142.9,0,214.4,0
		c1.2,0,1.6,0.3,1.5,1.5C763.4,78.2,763.4,81,763.5,83.7z"/>
	<path id="XMLID_26_" class="st1" d="M254,104.7c0,0.7-0.1,1.1-0.9,0.9c-0.2,0-0.4,0-0.6,0c-59.1,0-118.3,0-177.4,0
		c-1.2,0-1.6-0.3-1.6-1.5c0.1-2.7,0.1-5.4,0-8.2c0-1,0.2-1.4,1.3-1.4c16,0,32.1,0,48.1,0h40.8c29.6,0,59.2,0,88.8,0
		c1.2,0,1.6,0.3,1.5,1.5C253.9,98.9,253.9,101.8,254,104.7z"/>
	<path id="XMLID_25_" class="st1" d="M726.3,104.4c0,1-0.3,1.2-1.3,1.2c-23.1,0-46.3,0-69.5,0H636c-29.5,0-59,0-88.5,0
		c-1.3,0-1.5-0.3-1.5-1.5c0.1-2.9,0.1-5.8,0-8.6c0-0.8,0.2-1,0.9-0.9c0.2,0,0.4,0,0.6,0c59.1,0,118.1,0,177.2,0
		c1.3,0,1.6,0.4,1.5,1.6C726.2,98.9,726.2,101.6,726.3,104.4z"/>
	<path id="XMLID_24_" class="st0" d="M294.7,144.7c0,5.7,0,11.4,0,17c0,0.9-0.2,1.2-1.1,1.1c-1-0.1-2.4,0.4-3-0.2
		c-0.5-0.6-0.2-1.9-0.2-2.9c0-4.1,0-8.3,0-12.8c-2.3,3.1-4.4,5.9-6.6,8.7c-0.9,1.2-1.2,1.2-2,0c-2.1-2.8-4.2-5.6-6.3-8.5
		c-0.3,0.3-0.2,0.6-0.2,0.9c0,4.6,0,9.2,0,13.8c0,0.8-0.2,1.1-1,1c-1-0.1-2.4,0.3-3-0.2c-0.6-0.5-0.2-1.9-0.2-3c0-5.9,0-11.8,0-17.8
		c0-0.9,0.3-1,1.1-1.2c2.8-0.4,4.6,0.5,6,3c1.2,2,2.8,3.8,4.1,5.7c0.4,0.6,0.6,0.6,1.1,0c1.9-2.7,3.9-5.3,5.8-8
		c0.4-0.5,0.8-0.8,1.5-0.8c1.3,0.1,2.9-0.4,3.7,0.2C295.3,141.7,294.7,143.4,294.7,144.7z"/>
	<path id="XMLID_23_" class="st0" d="M451.4,161.4c-2.1,1.4-4.4,2-6.7,1.9c-5.4,0-9.2-2.3-10.9-6.6c-1.8-4.6-0.9-10,2.4-13.3
		c4-4,11.2-4.2,15.7-0.6c0.8,0.6,0.8,1,0,1.6c0,0-0.1,0-0.1,0.1c-0.6,0.6-1.1,1.3-1.8,1.6c-0.7,0.3-1.2-0.7-1.9-1
		c-3.2-1.6-7.3-0.9-9.4,1.7c-2.2,2.6-2.3,7.1-0.3,9.8c2.3,3.1,7.5,3.7,10.9,1.1c0.6-0.5,1-0.6,1.5,0.1c0.2,0.3,0.6,0.6,0.8,0.9
		C453.2,160.2,453.2,160.2,451.4,161.4z"/>
	<path id="XMLID_20_" class="st0" d="M340.8,161.1c-7,5.1-17,1.4-18.6-6.8c-1.1-5.2,1.3-10.4,5.6-12.7c4.6-2.4,10.5-1.6,14,2
		c-0.7,0.7-1.4,1.4-2.1,2.1c-0.4,0.5-0.7,0.5-1.3,0.1c-2.2-1.7-4.7-2-7.3-1.2c-3.8,1.1-5.8,5.1-4.8,9.2c0.9,3.9,4.4,6.1,8.5,5.4
		c1.4-0.2,2.7-0.7,3.8-1.7c0.6-0.5,0.8-0.3,1.2,0.1c0.3,0.4,0.7,0.8,1.1,1.1C342.2,160.1,342.2,160.1,340.8,161.1z"/>
	<path id="XMLID_214_" class="st0" d="M359.4,148.3c0-1-0.3-1.3-1.2-1.2c-0.2,0-0.5,0-0.7,0c-1.8,0-1.8,0-1.9,1.9
		c-3.2-2.9-8-2.9-10.9,0c-2.9,2.9-3,8.9-0.2,12c1.3,1.4,3,2.1,4.9,2.3c2.4,0.2,4.5-0.4,6.2-2.4c0.2,2,0.2,2,2.2,2c0.2,0,0.5,0,0.7,0
		c0.8,0.1,1-0.3,1-1C359.4,157.3,359.4,152.8,359.4,148.3z M351,159.7c-2.7,0-4.6-2-4.6-4.8c0-2.8,1.9-4.7,4.6-4.7
		c2.7,0,4.5,2,4.5,4.8C355.5,157.8,353.6,159.7,351,159.7z"/>
	<path id="XMLID_19_" class="st0" d="M469.7,162.3c0,0.4-0.2,0.5-0.5,0.5c-0.1,0-0.2,0-0.4,0c-3,0.1-3,0.1-3-2.9c0-1.8,0-3.6,0-5.4
		c-0.1-2.4-1.2-3.8-3.3-3.9c-1.9-0.1-3.6,1.3-3.9,3.5c-0.3,2.5-0.1,5.1-0.1,7.7c0,0.9-0.3,1.1-1.1,1.1c-2.8,0-2.8,0-2.8-2.8
		c0-6,0-12.1,0-18.1c0-0.9,0.1-1.2,1.1-1.2c2.8,0,2.8,0,2.8,2.8v5.8c1.4-1.7,3-2.3,4.9-2.3c3.2,0,5.3,1.6,5.9,4.7
		C470.1,155.2,469.6,158.8,469.7,162.3z"/>
	<path id="XMLID_210_" class="st0" d="M385.8,147c-1-0.2-2.1-0.2-3.1-0.1c-3.5,0.3-6.1,2.6-6.9,6c-0.9,3.8,0.5,7.6,3.6,9.2
		c3.6,1.9,7.1,1.6,10.6-0.5c0.9-0.5,0.9-1,0.1-1.7c-0.4-0.3-0.8-0.7-1.1-1.1c-0.4-0.4-0.6-0.4-1.1-0.1c-1.5,1-3.2,1.2-5,0.9
		c-1.3-0.2-2.3-0.8-2.9-2c-0.3-0.7-0.5-1.1,0.6-1.1c1.7,0.1,3.4,0,5.2,0h5.3c0.4,0,0.7,0,0.8-0.6C392.6,151.7,390,147.7,385.8,147z
		 M387,153.3c-1.1-0.1-2.2,0-3.2,0c-1.1,0-2.3,0-3.5,0c-0.4,0-0.7,0-0.4-0.6c0.7-1.6,2-2.3,3.7-2.4c1.7-0.1,3.2,0.2,4.1,1.8
		C388.1,152.8,388.2,153.4,387,153.3z"/>
	<path id="XMLID_207_" class="st0" d="M399,156.5c1.7,0.1,3.4,0,5.2,0h4.1c2.1,0,2.1,0,2-2.1c-0.1-4-2.1-6.5-5.8-7.3
		c-1.1-0.2-2.2-0.2-3.3-0.1c-3.6,0.3-6.4,3-7,6.6c-0.6,4.2,1.2,7.8,4.8,9.1c2.9,1.1,5.7,0.9,8.5-0.5c2.2-1.1,2.2-1.2,0.5-2.8
		c-0.2-0.2-0.4-0.3-0.5-0.5c-0.3-0.4-0.6-0.4-1.1-0.1c-1.5,1-3.2,1.2-4.9,0.9c-1.3-0.2-2.3-0.8-2.9-2
		C398.1,156.8,398,156.4,399,156.5z M398.3,152.7c0.4-1.2,1.9-2.3,3.6-2.4c1.7-0.1,3.3,0.1,4.2,1.8c0.4,0.7,0.5,1.3-0.7,1.2
		c-0.8-0.1-1.5,0-2.3,0c-0.3,0-0.6,0-1,0c-0.2,0-0.4,0-0.6,0c-0.9,0-1.9,0-2.8,0C398.5,153.3,398.1,153.4,398.3,152.7z"/>
	<path id="XMLID_204_" class="st0" d="M529.5,154c-0.2-3.8-2.4-6.4-6-7c-1-0.2-2.1-0.2-3.1-0.1c-3.5,0.3-6.1,2.7-6.9,6.2
		c-0.8,3.7,0.6,7.5,3.6,9c3.6,1.9,7.1,1.5,10.6-0.6c0.9-0.5,0.9-1,0.1-1.6c-0.4-0.3-0.8-0.7-1.1-1.1c-0.3-0.4-0.6-0.5-1.1-0.1
		c-1.5,1-3.1,1.2-4.8,0.9c-1.7-0.3-2.9-1.1-3.4-3.1h9.8C529.6,156.5,529.6,156.5,529.5,154z M524.8,153.3c-2.2,0-4.4,0-6.6,0
		c-0.8,0-0.9-0.2-0.5-0.9c0.9-1.6,2.3-2.1,4.1-2.2c1.5,0.1,2.9,0.4,3.6,2C525.7,153,525.7,153.3,524.8,153.3z"/>
	<path id="XMLID_201_" class="st0" d="M480.4,146.9c-4.7,0-8.1,3.4-8.1,8.2c0,4.7,3.4,8.1,8.1,8c4.8,0,8.2-3.5,8.1-8.2
		C488.6,150.4,485.1,147,480.4,146.9z M480.3,159.6c-2.5,0-4.2-1.9-4.1-4.6c0-2.6,1.9-4.5,4.3-4.5c2.4,0,4.1,2,4.1,4.6
		C484.6,157.8,482.9,159.6,480.3,159.6z"/>
	<path id="XMLID_16_" class="st0" d="M509.8,162.3c-1.3,0.8-2.8,1-4,1c-4.5,0-7.5-2.4-8.2-6.2c-0.8-4.4,0.8-8.2,4.4-9.6
		c3-1.2,6-1.1,8.7,1c0.5,0.4,0.7,0.7,0.1,1.2c-0.1,0.1-0.2,0.2-0.2,0.3c-0.9,1.1-1.6,1.9-3.3,0.9c-1.7-1-4-0.1-5.1,1.5
		c-1.2,1.7-1,4.4,0.3,5.9c1.3,1.4,3.9,1.9,5.6,0.7c1.1-0.8,1.5-0.3,2.2,0.4C511.9,161.1,511.9,161.1,509.8,162.3z"/>
	<path id="XMLID_15_" class="st0" d="M425.1,149c-0.1,0.2-0.2,0.4-0.3,0.6c-0.3,0.6-0.5,1.4-1,1.7c-0.5,0.4-1.1-0.4-1.6-0.6
		c-2.7-0.7-5,0.9-5,3.7c-0.1,2.5,0,4.9,0,7.4c0,0.8-0.2,0.9-0.9,0.9c-2.9,0-2.9,0.1-2.9-2.9c0-3.9,0-7.8,0-11.6c0-1,0.3-1.3,1.2-1.2
		c0.3,0,0.6,0,0.8,0c1.2-0.2,2,0.1,1.6,1.8c2.4-2.4,5.4-2.7,7.8-1.2C425.3,148.1,425.6,148.4,425.1,149z"/>
	<path id="XMLID_14_" class="st0" d="M374.6,149c-0.5,0.8-0.9,1.7-1.4,2.6c-0.9-0.7-1.8-1-2.8-1c-2.4,0-3.8,1.4-3.9,3.8
		c0,2.5,0,4.9,0,7.4c0,0.7-0.2,0.9-0.9,0.9c-3,0-3,0-3-2.9c0-3.9,0-7.8,0-11.6c0-0.8,0.2-1.2,1.1-1.1c0.2,0,0.5,0,0.7,0
		c1.2-0.1,2.3-0.2,2,1.7c2.4-2.3,5.4-2.6,7.8-1.1C374.7,148.1,375,148.4,374.6,149z"/>
	<path id="XMLID_13_" class="st0" d="M494.9,162c0,0.6-0.2,0.8-0.8,0.8c-3.1,0.1-3.1,0.1-3.1-2.9c0-3.9,0-7.8,0-11.8
		c0-0.8,0.2-1,1-1c2.9,0,2.9,0,2.9,2.9v5C494.9,157.4,494.9,159.7,494.9,162z"/>
	<path id="XMLID_12_" class="st0" d="M495.3,142.8c0,1.3-0.9,2.2-2.3,2.3c-1.4,0-2.3-1-2.3-2.3c0-1.3,1-2.2,2.3-2.2
		C494.4,140.6,495.3,141.5,495.3,142.8z"/>
	<path id="XMLID_33_" class="st2" d="M403.2,153.2c-0.3,0-0.6,0-1,0h-0.6c0.2,0,0.4,0,0.6,0C402.5,153.3,402.8,153.2,403.2,153.2z"
		/>
	<path id="XMLID_43_" class="st0" d="M371.8,44.1c0,21.2,0,42.3,0,63.5c0,0.8-0.2,1.1-1,1.1c-3.4,0-6.8-0.1-10.2,0
		c-1.1,0-1.2-0.4-1.2-1.3c0-14.9,0-29.8,0-44.6v-1.6c-0.4,0.5-0.7,0.8-0.9,1.1c-6.6,8.8-13.2,17.6-19.8,26.4c-1,1.3-2.8,1.3-3.8,0
		c-6.5-8.9-13-17.8-19.5-26.7c-0.2-0.2-0.2-0.6-0.7-0.7v1.2c0,15,0,29.9,0,44.9c0,1.1-0.3,1.4-1.4,1.4c-3.4-0.1-6.7-0.1-10.1,0
		c-0.7,0-0.9-0.2-0.9-0.9c0-21.2,0-42.5,0-63.7c0-0.7,0.1-1,0.9-1c4.2,0,8.4,0,12.6,0c0.7,0,1.1,0.4,1.4,0.9
		c6.3,8.6,12.6,17.3,18.8,25.9c0.3,0.5,0.7,0.9,1.1,1.4c3.3-4.6,6.6-9.1,9.9-13.6c3.3-4.5,6.6-9.1,9.9-13.7c0.4-0.6,0.9-0.9,1.7-0.9
		c4,0,8.1,0,12.1,0C371.6,43.1,371.8,43.3,371.8,44.1z"/>
	<path id="XMLID_42_" class="st0" d="M502.7,101.1c-5.2,4.8-11.3,7.6-18.2,8.6c-7.1,1-14.1,0.5-20.9-2.1
		c-10.9-4.3-17-12.6-19.2-23.9c-1.5-7.7-0.9-15.2,2.3-22.4c4.8-10.9,13.2-17,24.8-19c1.2-0.2,2.4-0.4,3.7-0.4c1-0.1,2,0,3,0
		c9.1-0.1,16.9,3,23.6,9.2c0.7,0.6,0.7,0.9,0,1.6c-2.3,2.1-4.5,4.2-6.6,6.4c-0.6,0.6-1,0.7-1.7,0.1c-7.6-6.6-20.4-7.3-28.6-1.6
		c-3.8,2.6-6.3,6.2-7.7,10.5c-2,5.9-1.8,11.8,0.4,17.6c2.5,6.4,7.2,10.5,13.8,12.1c8,2,15.5,0.6,22.1-4.5c1.6-1.2,1.5-1.3,2.9,0.2
		c2.1,2.1,4.2,4.3,6.3,6.4C503.3,100.3,503.2,100.6,502.7,101.1z"/>
	<path id="XMLID_41_" class="st0" d="M440.7,101.1c-5.5,5-12,7.9-19.4,8.7c-7.3,0.8-14.4,0.1-21.1-2.9c-9.9-4.4-15.5-12.4-17.7-22.8
		c-1.9-9.1-0.8-17.9,3.8-26.1c5.1-9.1,13.1-14.1,23.2-15.8c2.2-0.4,4.4-0.6,6.7-0.5c9.1,0,16.9,3.2,23.6,9.3c0.7,0.6,0.6,0.9,0,1.5
		c-2.3,2.1-4.5,4.2-6.6,6.4c-0.7,0.7-1,0.7-1.7,0c-8.1-7.1-21.7-7.4-29.9-0.5c-5.5,4.7-7.8,10.9-7.7,18c0.1,6.8,2.1,12.8,7.5,17.2
		c4.6,3.9,10.1,5,15.9,4.8c5.7-0.2,10.8-2.2,15.1-6.1c0.5-0.4,0.7-0.4,1.1,0c2.4,2.4,4.8,4.8,7.2,7.2
		C441.2,100.2,441.3,100.5,440.7,101.1z"/>
</g>
</svg>
